<svg width="89" height="17" viewBox="0 0 89 17" fill="none" xmlns="http://www.w3.org/2000/svg">
<path d="M10.9432 5.14773H9.17045C9.10227 4.76894 8.97538 4.43561 8.78977 4.14773C8.60417 3.85985 8.37689 3.61553 8.10795 3.41477C7.83902 3.21401 7.53788 3.0625 7.20455 2.96023C6.875 2.85795 6.52462 2.80682 6.15341 2.80682C5.48295 2.80682 4.88258 2.97538 4.35227 3.3125C3.82576 3.64962 3.40909 4.14394 3.10227 4.79545C2.79924 5.44697 2.64773 6.24242 2.64773 7.18182C2.64773 8.12879 2.79924 8.92803 3.10227 9.57955C3.40909 10.2311 3.82765 10.7235 4.35795 11.0568C4.88826 11.3902 5.48485 11.5568 6.14773 11.5568C6.51515 11.5568 6.86364 11.5076 7.19318 11.4091C7.52652 11.3068 7.82765 11.1572 8.09659 10.9602C8.36553 10.7633 8.5928 10.5227 8.77841 10.2386C8.9678 9.95076 9.09848 9.62121 9.17045 9.25L10.9432 9.25568C10.8485 9.82765 10.6648 10.3542 10.392 10.8352C10.1231 11.3125 9.77652 11.7254 9.35227 12.0739C8.93182 12.4186 8.45076 12.6856 7.90909 12.875C7.36742 13.0644 6.77652 13.1591 6.13636 13.1591C5.12879 13.1591 4.23106 12.9205 3.44318 12.4432C2.6553 11.9621 2.03409 11.2746 1.57955 10.3807C1.12879 9.48674 0.903409 8.42045 0.903409 7.18182C0.903409 5.93939 1.13068 4.87311 1.58523 3.98295C2.03977 3.08901 2.66098 2.40341 3.44886 1.92614C4.23674 1.44508 5.13258 1.20455 6.13636 1.20455C6.75379 1.20455 7.32955 1.29356 7.86364 1.47159C8.40152 1.64583 8.88447 1.90341 9.3125 2.24432C9.74053 2.58144 10.0947 2.99432 10.375 3.48295C10.6553 3.9678 10.8447 4.52273 10.9432 5.14773ZM15.4474 13.1932C14.8944 13.1932 14.3944 13.0909 13.9474 12.8864C13.5005 12.678 13.1463 12.3769 12.8849 11.983C12.6274 11.589 12.4986 11.1061 12.4986 10.5341C12.4986 10.0417 12.5933 9.63636 12.7827 9.31818C12.9721 9 13.2277 8.74811 13.5497 8.5625C13.8717 8.37689 14.2315 8.23674 14.6293 8.14205C15.027 8.04735 15.4323 7.97538 15.8452 7.92614C16.3679 7.86553 16.7921 7.81629 17.1179 7.77841C17.4437 7.73674 17.6804 7.67045 17.8281 7.57955C17.9759 7.48864 18.0497 7.34091 18.0497 7.13636V7.09659C18.0497 6.60038 17.9096 6.21591 17.6293 5.94318C17.3527 5.67045 16.9399 5.53409 16.3906 5.53409C15.8187 5.53409 15.3679 5.66098 15.0384 5.91477C14.7126 6.16477 14.4872 6.44318 14.3622 6.75L12.7656 6.38636C12.955 5.85606 13.2315 5.42803 13.5952 5.10227C13.9626 4.77273 14.3849 4.53409 14.8622 4.38636C15.3395 4.23485 15.8414 4.15909 16.3679 4.15909C16.7164 4.15909 17.0857 4.20076 17.4759 4.28409C17.8698 4.36364 18.2372 4.51136 18.5781 4.72727C18.9228 4.94318 19.205 5.25189 19.4247 5.65341C19.6444 6.05114 19.7543 6.56818 19.7543 7.20455V13H18.0952V11.8068H18.027C17.9171 12.0265 17.7524 12.2424 17.5327 12.4545C17.313 12.6667 17.0308 12.8428 16.6861 12.983C16.3414 13.1231 15.9285 13.1932 15.4474 13.1932ZM15.8168 11.8295C16.2865 11.8295 16.688 11.7367 17.0213 11.5511C17.3584 11.3655 17.6141 11.1231 17.7884 10.8239C17.9664 10.5208 18.0554 10.197 18.0554 9.85227V8.72727C17.9948 8.78788 17.8774 8.8447 17.7031 8.89773C17.5327 8.94697 17.3376 8.99053 17.1179 9.02841C16.8982 9.0625 16.6842 9.0947 16.4759 9.125C16.2675 9.15152 16.0933 9.17424 15.9531 9.19318C15.6236 9.23485 15.3224 9.30492 15.0497 9.40341C14.7808 9.50189 14.5649 9.64394 14.402 9.82955C14.2429 10.0114 14.1634 10.2538 14.1634 10.5568C14.1634 10.9773 14.3187 11.2955 14.6293 11.5114C14.9399 11.7235 15.3357 11.8295 15.8168 11.8295ZM22.017 13V4.27273H23.6477V5.69318H23.7557C23.9375 5.21212 24.2348 4.83712 24.6477 4.56818C25.0606 4.29545 25.5549 4.15909 26.1307 4.15909C26.714 4.15909 27.2027 4.29545 27.5966 4.56818C27.9943 4.84091 28.2879 5.21591 28.4773 5.69318H28.5682C28.7765 5.22727 29.108 4.85606 29.5625 4.57955C30.017 4.29924 30.5587 4.15909 31.1875 4.15909C31.9792 4.15909 32.625 4.4072 33.125 4.90341C33.6288 5.39962 33.8807 6.14773 33.8807 7.14773V13H32.1818V7.30682C32.1818 6.71591 32.0208 6.28788 31.6989 6.02273C31.3769 5.75758 30.9924 5.625 30.5455 5.625C29.9924 5.625 29.5625 5.79545 29.2557 6.13636C28.9489 6.47348 28.7955 6.9072 28.7955 7.4375V13H27.1023V7.19886C27.1023 6.72538 26.9545 6.3447 26.6591 6.05682C26.3636 5.76894 25.9792 5.625 25.5057 5.625C25.1837 5.625 24.8864 5.71023 24.6136 5.88068C24.3447 6.04735 24.1269 6.2803 23.9602 6.57955C23.7973 6.87879 23.7159 7.22538 23.7159 7.61932V13H22.017ZM36.1577 16.2727V4.27273H37.8168V5.6875H37.9588C38.0573 5.50568 38.1993 5.29545 38.3849 5.05682C38.5705 4.81818 38.8281 4.60985 39.1577 4.43182C39.4872 4.25 39.9228 4.15909 40.4645 4.15909C41.169 4.15909 41.7978 4.33712 42.3509 4.69318C42.9039 5.04924 43.3376 5.5625 43.652 6.23295C43.9702 6.90341 44.1293 7.71023 44.1293 8.65341C44.1293 9.59659 43.9721 10.4053 43.6577 11.0795C43.3433 11.75 42.9115 12.267 42.3622 12.6307C41.813 12.9905 41.1861 13.1705 40.4815 13.1705C39.9512 13.1705 39.5175 13.0814 39.1804 12.9034C38.8471 12.7254 38.5857 12.517 38.3963 12.2784C38.2069 12.0398 38.0611 11.8277 37.9588 11.642H37.8565V16.2727H36.1577ZM37.8224 8.63636C37.8224 9.25 37.9115 9.78788 38.0895 10.25C38.2675 10.7121 38.5251 11.0739 38.8622 11.3352C39.1993 11.5928 39.6122 11.7216 40.1009 11.7216C40.6084 11.7216 41.0327 11.5871 41.3736 11.3182C41.7145 11.0455 41.9721 10.6761 42.1463 10.2102C42.3243 9.74432 42.4134 9.2197 42.4134 8.63636C42.4134 8.06061 42.3262 7.54356 42.152 7.08523C41.9815 6.62689 41.724 6.26515 41.3793 6C41.0384 5.73485 40.6122 5.60227 40.1009 5.60227C39.6084 5.60227 39.1918 5.72917 38.8509 5.98295C38.5137 6.23674 38.258 6.59091 38.0838 7.04545C37.9096 7.5 37.8224 8.0303 37.8224 8.63636ZM49.794 13.1761C48.9342 13.1761 48.1937 12.9924 47.5724 12.625C46.955 12.2538 46.4777 11.733 46.1406 11.0625C45.8073 10.3883 45.6406 9.59848 45.6406 8.69318C45.6406 7.79924 45.8073 7.01136 46.1406 6.32955C46.4777 5.64773 46.9474 5.11553 47.5497 4.73295C48.1558 4.35038 48.8641 4.15909 49.6747 4.15909C50.1671 4.15909 50.6444 4.24053 51.1065 4.40341C51.5687 4.56629 51.9834 4.82197 52.3509 5.17045C52.7183 5.51894 53.008 5.97159 53.2202 6.52841C53.4323 7.08144 53.5384 7.75379 53.5384 8.54545V9.14773H46.6009V7.875H51.8736C51.8736 7.42803 51.7827 7.0322 51.6009 6.6875C51.419 6.33902 51.1634 6.06439 50.8338 5.86364C50.508 5.66288 50.1255 5.5625 49.6861 5.5625C49.2088 5.5625 48.7921 5.67992 48.4361 5.91477C48.0838 6.14583 47.8111 6.44886 47.6179 6.82386C47.4285 7.19508 47.3338 7.59848 47.3338 8.03409V9.02841C47.3338 9.61174 47.4361 10.108 47.6406 10.517C47.849 10.9261 48.1387 11.2386 48.5099 11.4545C48.8812 11.6667 49.3149 11.7727 49.8111 11.7727C50.133 11.7727 50.4266 11.7273 50.6918 11.6364C50.9569 11.5417 51.1861 11.4015 51.3793 11.2159C51.5724 11.0303 51.7202 10.8011 51.8224 10.5284L53.4304 10.8182C53.3016 11.2917 53.0705 11.7064 52.7372 12.0625C52.4077 12.4148 51.9929 12.6894 51.4929 12.8864C50.9967 13.0795 50.4304 13.1761 49.794 13.1761ZM55.4233 13V4.27273H57.0653V5.65909H57.1562C57.3153 5.18939 57.5956 4.82008 57.9972 4.55114C58.4025 4.27841 58.8608 4.14205 59.3722 4.14205C59.4782 4.14205 59.6032 4.14583 59.7472 4.15341C59.8949 4.16098 60.0104 4.17045 60.0938 4.18182V5.80682C60.0256 5.78788 59.9044 5.76705 59.7301 5.74432C59.5559 5.7178 59.3816 5.70455 59.2074 5.70455C58.8059 5.70455 58.4479 5.78977 58.1335 5.96023C57.8229 6.12689 57.5767 6.35985 57.3949 6.65909C57.2131 6.95455 57.1222 7.29167 57.1222 7.67045V13H55.4233Z" fill="#E44848"/>
<path d="M60.2202 2.875V1.36364H69.2259V2.875H65.5952V13H63.8452V2.875H60.2202ZM70.1733 13V4.27273H71.8153V5.65909H71.9062C72.0653 5.18939 72.3456 4.82008 72.7472 4.55114C73.1525 4.27841 73.6108 4.14205 74.1222 4.14205C74.2282 4.14205 74.3532 4.14583 74.4972 4.15341C74.6449 4.16098 74.7604 4.17045 74.8438 4.18182V5.80682C74.7756 5.78788 74.6544 5.76705 74.4801 5.74432C74.3059 5.7178 74.1316 5.70455 73.9574 5.70455C73.5559 5.70455 73.1979 5.78977 72.8835 5.96023C72.5729 6.12689 72.3267 6.35985 72.1449 6.65909C71.9631 6.95455 71.8722 7.29167 71.8722 7.67045V13H70.1733ZM76.3139 13V4.27273H78.0128V13H76.3139ZM77.1719 2.92614C76.8764 2.92614 76.6226 2.82765 76.4105 2.63068C76.2022 2.42992 76.098 2.19129 76.098 1.91477C76.098 1.63447 76.2022 1.39583 76.4105 1.19886C76.6226 0.998106 76.8764 0.897727 77.1719 0.897727C77.4673 0.897727 77.7192 0.998106 77.9276 1.19886C78.1397 1.39583 78.2457 1.63447 78.2457 1.91477C78.2457 2.19129 78.1397 2.42992 77.9276 2.63068C77.7192 2.82765 77.4673 2.92614 77.1719 2.92614ZM80.2983 16.2727V4.27273H81.9574V5.6875H82.0994C82.1979 5.50568 82.34 5.29545 82.5256 5.05682C82.7112 4.81818 82.9688 4.60985 83.2983 4.43182C83.6278 4.25 84.0634 4.15909 84.6051 4.15909C85.3097 4.15909 85.9384 4.33712 86.4915 4.69318C87.0445 5.04924 87.4782 5.5625 87.7926 6.23295C88.1108 6.90341 88.2699 7.71023 88.2699 8.65341C88.2699 9.59659 88.1127 10.4053 87.7983 11.0795C87.4839 11.75 87.0521 12.267 86.5028 12.6307C85.9536 12.9905 85.3267 13.1705 84.6222 13.1705C84.0919 13.1705 83.6581 13.0814 83.321 12.9034C82.9877 12.7254 82.7263 12.517 82.5369 12.2784C82.3475 12.0398 82.2017 11.8277 82.0994 11.642H81.9972V16.2727H80.2983ZM81.9631 8.63636C81.9631 9.25 82.0521 9.78788 82.2301 10.25C82.4081 10.7121 82.6657 11.0739 83.0028 11.3352C83.34 11.5928 83.7528 11.7216 84.2415 11.7216C84.7491 11.7216 85.1733 11.5871 85.5142 11.3182C85.8551 11.0455 86.1127 10.6761 86.2869 10.2102C86.465 9.74432 86.554 9.2197 86.554 8.63636C86.554 8.06061 86.4669 7.54356 86.2926 7.08523C86.1222 6.62689 85.8646 6.26515 85.5199 6C85.179 5.73485 84.7528 5.60227 84.2415 5.60227C83.7491 5.60227 83.3324 5.72917 82.9915 5.98295C82.6544 6.23674 82.3987 6.59091 82.2244 7.04545C82.0502 7.5 81.9631 8.0303 81.9631 8.63636Z" fill="#475467"/>
</svg>
